<svg version="1" xmlns="http://www.w3.org/2000/svg" width="1066.667" height="1066.667" viewBox="0 0 800.000000 800.000000"><path d="M375.8.5c-.2.2-3.9.6-8.3.9-4.4.3-9.6.8-11.5 1-1.9.3-6.2.7-9.5 1.1-3.2.4-6.2.8-6.5 1-.3.1-2.7.6-5.5.9-4.8.6-7.2 1-12.5 2.2-1.4.3-3.8.8-5.4 1-1.6.3-8.8 2.1-16 4-7.2 1.9-13.8 3.6-14.6 3.8-8.2 2.1-35.3 12.1-48 17.7-10.2 4.5-32.8 16.1-40.7 20.9-3.6 2.2-6.9 4-7.4 4s-.9.4-.9 1c0 .5-.7 1-1.5 1s-1.5.4-1.5 1c0 .5-.6 1-1.4 1-.8 0-2.1.6-2.8 1.3-1.2 1.2-7 5.3-11.7 8.2-1.9 1.2-13.1 9.4-14.8 10.9-.7.6-1.8 1.5-2.5 2.1-19.1 14.7-42.3 37-56.8 54.5-2.5 3-5.3 6.2-6.2 7.2-1 1-1.8 2.2-1.8 2.8 0 .5-.3 1-.7 1-.5 0-2.4 2.3-4.3 5s-3.8 5-4.2 5c-.5 0-.8.5-.8 1.1 0 .6-1.5 2.9-3.3 5.2-3.5 4.4-15.8 23.2-19.7 30.2-7.3 12.8-9.6 17.1-14.6 27.5-10.8 22.2-21.5 50.8-27 72-.2.8-.8 3.3-1.4 5.5-.5 2.2-1.3 5.6-1.6 7.5-.3 1.9-.8 3.9-1.1 4.3-.2.4-.6 2-.8 3.5-.3 1.5-.7 3.8-1 5.2-.3 1.4-.8 3.8-1 5.3-.2 1.6-.6 4-.9 5.5-1.6 8-3.4 21.8-4.4 33.7-1.4 18.1-.7 65 1.2 76.5.2 1.4.7 5.1 1.1 8.4.7 6.1.9 7.4 2.6 17.1.6 3.3 1.3 7.3 1.6 8.9 2.1 12.6 11.4 45.2 17.7 62 4.4 11.6 12 29.1 12.8 29.4.5.2.8 1 .8 1.9 0 .8 1.7 4.7 3.9 8.6 2.1 4 5.5 10.3 7.6 14.1 2 3.8 5.2 9.4 7.1 12.3 1.9 2.9 3.4 5.5 3.4 5.7 0 .8 8.5 13.1 9.2 13.4.4.2.8.9.8 1.5 0 .7 1.1 2.5 2.5 4s2.2 2.7 1.8 2.7c-.4 0-.3.4.2.8.6.4 3.2 3.6 6 7.2 2.7 3.6 5.2 6.7 5.5 7 .3.3 1.7 2.1 3.2 4 10.1 13.4 32.9 36.8 49.8 51 2.9 2.5 6.9 5.9 8.9 7.6 8.1 6.8 31.4 23.4 33 23.4.5 0 1.1.4 1.3.9.3 1.1 17 11 26.8 16.1 3.6 1.9 7.2 3.9 8 4.6.8.7 1.8 1.3 2.3 1.3.4 0 4 1.5 8 3.4 14.3 6.8 38.6 16.7 44.7 18.2.8.2 6.2 1.8 12 3.5 17 5.1 30.6 8.5 42 10.4 1.4.2 4.1.7 6 1.1 4.2.8 7.6 1.2 15.5 2 3.3.4 6.2.8 6.5 1 1.6 1 22.8 1.9 44 1.9 21.1.1 34.9-.5 45-1.9 1.9-.3 5.3-.7 7.6-.9 2.2-.3 8.3-1.2 13.5-2.1 5.2-.9 10.5-1.8 11.9-2 1.4-.1 4.5-.8 7-1.5s5.6-1.4 7-1.7c1.4-.2 4.3-.9 6.5-1.5 2.2-.5 4.7-1.2 5.5-1.3 10.2-2.3 41-13.1 56.8-20.1 7.3-3.2 37.7-18.6 39.2-19.9.8-.7 2.5-1.6 3.8-1.9 1.2-.4 2.2-1.2 2.2-1.7s.6-.9 1.4-.9c.7 0 1.9-.7 2.6-1.5.7-.8 1.6-1.3 2-1 .5.3 1 .2 1.2-.3.3-.9 9.6-7.2 10.5-7.2.3 0 1.8-1 3.3-2.3 1.5-1.2 4-3.1 5.6-4.2 5.8-4.1 17-12.7 19.6-15.1 1.5-1.3 3-2.4 3.3-2.4.3 0 1.9-1.3 3.5-3 1.6-1.6 3.2-3 3.4-3 1.8 0 28.3-26.6 41.1-41.3 8.7-10.1 20.2-24.9 21.7-28.2.6-1.4 1.4-2.5 1.8-2.5.4 0 3.1-3.9 6.1-8.6 3-4.7 6-9.2 6.7-9.9.6-.8 1.2-1.6 1.2-2 0-.3 1.6-3.1 3.5-6.1 1.9-3 3.5-5.7 3.5-6.1 0-.3 1.3-2.8 3-5.4 1.6-2.7 2.6-4.9 2.2-4.9-.4 0-.2-.4.4-.8.9-.6 12.4-23.5 12.4-24.8 0-.2.9-2.3 2-4.7 3.9-8.4 12.2-31.5 15.1-41.7.7-2.5 1.4-5 1.5-5.5 1.8-6.1 6.5-24.7 6.9-27 .2-1.7.7-4.1 1-5.5.3-1.4.8-3.9 1-5.5.3-1.7.7-4.1 1-5.5.3-1.4.8-4.5 1-7 .3-2.5.8-5.7 1.1-7.2 3.4-16.9 4-85.7.9-97.8-.2-.8-.6-3.3-.9-5.5-.3-2.2-.9-6-1.2-8.5-.3-2.5-.8-5.5-1-6.8-.2-1.2-.6-3.2-.8-4.5-1.1-6.5-1.9-10.3-4.7-22.2-3.8-15.9-6-23.1-12.9-43-3.1-8.9-3.8-10.6-7.9-19.7-1.1-2.6-2.1-5-2.1-5.3 0-1.2-12.6-26.2-17.2-34.3-2.7-4.6-4.8-8.8-4.8-9.3s-.4-.9-1-.9c-.5 0-1-.7-1-1.5s-.4-1.5-1-1.5c-.5 0-1-.5-1-1.1 0-1.3-16.3-25.9-19.5-29.5-.5-.6-2.1-2.6-3.5-4.4-2.4-3.3-6.5-8.3-8.5-10.7-.5-.6-2.6-3-4.5-5.4-9-10.9-31.5-33.6-42.1-42.4-1.4-1.1-5.2-4.4-8.6-7.3-3.3-2.8-6.4-5.2-6.7-5.2-.4 0-1.8-1-3.1-2.3-3.1-2.8-4-3.6-9.5-7.2-2.5-1.6-4.7-3.3-5-3.6-.9-1.2-26-16.9-26.9-16.9-.5 0-1.1-.3-1.3-.8-.3-.8-2.7-2.1-16.3-9.1-4.9-2.5-9.3-5-9.6-5.4-.3-.5-.9-.8-1.3-.8-.3.1-2-.6-3.6-1.4-1.7-.9-3-1.3-3-1 0 .3-1-.1-2.2-.9-3.3-2.1-26.3-11.1-40.1-15.7-9.7-3.2-17.6-5.5-29.7-8.5-6.3-1.5-20.1-4.6-23-5-1.9-.3-7.3-1.1-12-1.9-4.7-.7-11.6-1.7-15.5-2-3.8-.4-8.3-.9-10-1.2-3.3-.5-57.1-1.3-57.7-.8z"/></svg>